<svg xmlns="http://www.w3.org/2000/svg" width="25" height="22" viewBox="0 0 25 22">
    <path fill="#FFF" fill-rule="evenodd" d="M22.635 9.46H5.29l6.795-6.793a1.57 1.57 0 0 0 0-2.211 1.566 1.566 0 0 0-2.21 0L.455 9.874c-.307.31-.456.718-.45 1.125 0 .01-.004.017-.004.024v.002c0 .011.008.025.008.037.005.19.04.38.113.56.047.11.126.197.196.295.05.068.077.15.138.21l9.42 9.418a1.568 1.568 0 0 0 2.21 0 1.57 1.57 0 0 0 0-2.21l-6.748-6.749h17.298c.86 0 1.563-.704 1.563-1.56 0-.861-.702-1.566-1.563-1.566"/>
</svg>
