<svg xmlns="http://www.w3.org/2000/svg" viewBox="0 0 1030.54 248.65"><defs><style>.cls-1{fill:#fff;}.cls-2{opacity:0.45;}.cls-3{fill:#00a99d;}.cls-4{fill:#3fa9f5;}.cls-5{fill:blue;opacity:0.8;}</style></defs><title>Ryan&amp;apos;s Logo 2</title><g id="Layer_2" data-name="Layer 2"><g id="Layer_1-2" data-name="Layer 1"><path class="cls-1" d="M285.05,118c0-28.1,22.08-50.75,50.18-50.75a50.68,50.68,0,0,1,0,101.36C307.13,168.59,285.05,145.94,285.05,118Zm80.43,0c0-17.78-12.62-32-30.25-32C317.45,86,305,100.2,305,118s12.47,32,30.25,32C352.86,150,365.48,135.76,365.48,118Z"/><path class="cls-1" d="M469.28,133.75c0,21.51-15.63,34.84-32.84,34.84-7.59,0-16.77-2.87-21.5-9.61v41.15H396.16V100.49h18.78v8c4.73-6.74,13.91-9.75,21.5-9.75C453.65,98.77,469.28,112.24,469.28,133.75Zm-19.22,0a17.28,17.28,0,1,0-17.2,17.2A17,17,0,0,0,450.06,133.75Z"/><path class="cls-1" d="M545.83,139.91H495.37c2,7.75,8.31,12.05,17.34,12.05,6.74,0,13.48-2.73,17.49-7.46l11,11c-6.3,8.46-18.06,13.05-29.82,13.05-20.5,0-35.55-14.05-35.55-34.7,0-21.65,16.34-35.12,35.55-35.12s34.7,13.47,34.7,34C546.12,134.61,546,136.9,545.83,139.91Zm-18.49-12.18c-.58-7.89-7.17-12.62-15.63-12.62-7.6,0-14.34,3.59-16.34,12.62Z"/><path class="cls-1" d="M621.67,130.6v36.7H602.89V132.6c0-10.61-6.31-15.34-12.76-15.34-6.74,0-15.06,3.59-15.06,15.77V167.3H556.29V100.49h18.78v11.18c2.87-9,13.48-12.9,20.08-12.9C612.64,98.77,621.81,110.52,621.67,130.6Z"/><path class="cls-1" d="M638,68.52h38.71c28.39,0,44.87,21.5,44.87,49.6s-16.48,49.18-44.87,49.18H638Zm38.71,81.14c16.49,0,24.95-14.62,24.95-31.54s-8.46-32-24.95-32H657.94v63.51Z"/><path class="cls-1" d="M730.05,77.26c0-6.31,5.45-11.18,11.9-11.18s11.9,4.87,11.9,11.18S748.54,88.59,742,88.59,730.05,83.57,730.05,77.26Zm2.58,23.23h18.78V167.3H732.63Z"/><path class="cls-1" d="M835.14,100.49V167.3H816.35V159c-4.73,6.6-14.05,9.61-21.5,9.61-17.21,0-32.83-13.33-32.83-34.84s15.62-34.84,32.83-34.84c7.74,0,16.77,2.87,21.5,9.61v-8Zm-19.36,33.26a17.35,17.35,0,1,0-17.35,17.35A17.27,17.27,0,0,0,815.78,133.75Z"/><path class="cls-1" d="M849.76,64.79h18.78V167.3H849.76Z"/><path class="cls-1" d="M879,133.75c0-21.22,16.92-35,36-35s36,13.76,36,35-16.92,34.84-36,34.84S879,154.83,879,133.75Zm52.9,0c0-10.47-7.59-17.49-16.91-17.49s-16.92,7-16.92,17.49c0,10.32,7.6,17.35,16.92,17.35S931.9,144.07,931.9,133.75Z"/><path class="cls-1" d="M1030.54,100.49v57.63c0,29.25-14.77,42.87-38.43,42.87a35.52,35.52,0,0,1-32.54-20.36l15.63-6.74c2.86,6,9.75,10.33,16.91,10.33,12,0,19.65-6.6,19.65-24.09v-1c-4.88,6.45-14,9.46-21.51,9.46-17.2,0-32.83-13.33-32.83-34.84s15.63-34.84,32.83-34.84c7.6,0,16.63,3,21.51,9.46v-7.88Zm-19.36,33.26a17.35,17.35,0,1,0-17.34,17.35A17.27,17.27,0,0,0,1011.18,133.75Z"/><g class="cls-2"><path class="cls-1" d="M160.71,134.19c12.83,27.08,9.55,58.75-5.64,80.16S112.75,247,81.92,248.47,16.49,241.9,4.77,221.28,4.32,167.64,22.37,139s42.88-52.8,69.78-53.64S147.89,107.1,160.71,134.19Z"/></g><g class="cls-2"><path class="cls-3" d="M144.64,220.28c-26.32-14.87-42.42-42.81-42.89-69.21s14.69-51.29,38.53-70.38,56.41-32.43,78-22.25,32.1,43.87,34.53,77.84-3.19,68.23-24.28,84.48S171,235.14,144.64,220.28Z"/></g><g class="cls-2"><path class="cls-4" d="M125.5,166.84c-28.83,9.07-60.24,1.75-79.85-15.92S18.21,105.16,20.54,74.71s14.82-63.36,37-72.18S111.5,9,138,30.45s47.67,48.92,45.14,75.43S154.33,157.76,125.5,166.84Z"/></g><path class="cls-5" d="M146.34,192.91H87a23.66,23.66,0,0,0-13.78,4.42L33.47,225.79V121.9a71,71,0,0,1,71-71h41.86a71,71,0,0,1,71,71h0A71,71,0,0,1,146.34,192.91Z"/></g></g></svg>