<svg xmlns="http://www.w3.org/2000/svg" width="14" height="14" viewBox="0 0 14 14">
    <g fill="none" fill-rule="evenodd">
        <g fill="#2F353B" fill-rule="nonzero">
            <g>
                <path d="M.477 0C.21.002.002.27 0 .477v13.046c0 .25.227.477.477.477H10.66c.25 0 .477-.227.477-.477V3.34c0-.125-.05-.25-.139-.338L8.134.139C8.044.051 7.92 0 7.795 0H.477zm.478.955h6.363V3.34c0 .25.228.477.477.477h2.387v9.227H.955V.955zm7.318.67L9.51 2.865H8.273V1.626zM2.227 5.41c-.263 0-.477.214-.477.477 0 .264.214.478.477.478H8.91c.264 0 .477-.214.477-.478 0-.263-.213-.477-.477-.477H2.227zm0 2.546c-.263 0-.477.213-.477.477 0 .263.214.477.477.477H8.91c.264 0 .477-.214.477-.477 0-.264-.213-.477-.477-.477H2.227zm0 2.545c-.263 0-.477.214-.477.477 0 .264.214.478.477.478H8.91c.264 0 .477-.214.477-.478 0-.263-.213-.477-.477-.477H2.227z" transform="translate(1.864)"/>
            </g>
        </g>
    </g>
</svg>
