<?xml version="1.0" encoding="UTF-8"?>
<svg width="60px" height="60px" viewBox="0 0 60 60" version="1.1" xmlns="http://www.w3.org/2000/svg" xmlns:xlink="http://www.w3.org/1999/xlink">
    <!-- Generator: Sketch 53.2 (72643) - https://sketchapp.com -->
    <title>logo</title>
    <desc>Created with Sketch.</desc>
    <g id="Feature-Landing-Page" stroke="none" stroke-width="1" fill="none" fill-rule="evenodd">
        <g id="Mobile-Landing-Page" transform="translate(-20.000000, -20.000000)">
            <g id="Logo-/-_Motif-/-On-Light" transform="translate(20.000000, 20.000000)">
                <g id="Group">
                    <path d="M36.6316573,51.6510402 C33.0444132,56.8095944 26.6336258,59.5059799 19.3516573,59.8729679 C12.0590588,60.2397149 3.8952793,58.2881486 1.12748403,53.3211606 C-1.62944511,48.365257 1.02071237,40.3944136 5.28378324,33.5006787 C9.54709033,26.6069438 15.4124447,20.7792329 21.7677202,20.5765823 C28.1116573,20.3847751 34.9344132,25.8071847 37.9639407,32.3341727 C40.9934683,38.8611606 40.2186651,46.4927269 36.6316573,51.6510402 Z" id="purple_blob" fill-opacity="0.3" fill="#1B1464"></path>
                    <path d="M24.0356258,36.4027992 C23.9236573,30.0427992 27.5057045,24.0425582 33.1374368,19.4444859 C38.7779092,14.8401486 46.461925,11.6288233 51.5631061,14.0818353 C56.6494053,16.5319558 59.1438935,24.6526787 59.7190903,32.8389438 C60.2945234,41.0252088 58.9657832,49.2796667 53.9824762,53.1958112 C49.0020037,57.0965341 40.3820825,56.6613534 34.1661769,53.0796667 C27.9502714,49.497739 24.147358,42.7627992 24.0356258,36.4027992 Z" id="green_blob" fill-opacity="0.3" fill="#00A99D"></path>
                    <path d="M10.7843187,36.3655944 C6.15250765,32.1063173 4.30077537,25.3398112 4.85258639,18.0031847 C5.40605096,10.6554739 8.35242891,2.73619678 13.5925076,0.608967867 C18.8200667,-1.50862249 26.339673,2.17667871 32.595736,7.3374016 C38.8520352,12.4981245 43.8570746,19.1243896 43.2594368,25.5123414 C42.6528226,31.8875221 36.4555785,38.014992 29.6458147,40.2019799 C22.8362872,42.3887269 15.4158935,40.6246305 10.7843187,36.3655944 Z" id="blue_blob" fill-opacity="0.3" fill="#3FA9F5"></path>
                    <path d="M20.5555313,46.483498 C19.3878935,46.483498 18.2497832,46.8562691 17.3004132,47.5495221 L7.90734229,54.4083173 L7.90734229,29.3728956 C7.90734229,19.9230161 15.4170273,12.2622932 24.6808856,12.2622932 L34.5686021,12.2622932 C43.8324604,12.2622932 51.3421454,19.9230161 51.3421454,29.3728956 C51.3421454,38.8227751 43.8324604,46.483498 34.5686021,46.483498 L20.5555313,46.483498 Z" id="chat_icon" fill-opacity="0.7" fill="#0000FF"></path>
                </g>
            </g>
        </g>
    </g>
</svg>