<?xml version="1.0" encoding="UTF-8"?>
<svg width="44px" height="27px" viewBox="0 0 44 27" version="1.1" xmlns="http://www.w3.org/2000/svg" xmlns:xlink="http://www.w3.org/1999/xlink">
    <title>icons/np_users</title>
    <g id="icons/np_users" stroke="none" stroke-width="1" fill="none" fill-rule="evenodd">
        <g id="np_user_2045197_000000" transform="translate(6.000000, 0.000000)" fill="#2F353B" fill-rule="nonzero">
            <path d="M11.1627907,0 C7.67877209,0 4.8372093,2.84156279 4.8372093,6.3255814 C4.8372093,9.8096 7.67732093,12.6511628 11.1627907,12.6511628 C14.6468093,12.6511628 17.4883721,9.8096 17.4883721,6.3255814 C17.4883721,2.84156279 14.6482605,0 11.1627907,0 Z M11.1627907,1.48837209 C13.843014,1.48837209 16,3.64535814 16,6.3255814 C16,9.00580465 13.843014,11.1627907 11.1627907,11.1627907 C8.48256744,11.1627907 6.3255814,9.00580465 6.3255814,6.3255814 C6.3255814,3.64535814 8.48256744,1.48837209 11.1627907,1.48837209 Z M11.4767442,2.59304186 C11.113373,2.60466977 10.7848744,2.9215293 10.7587163,3.28491163 C10.7325537,3.64828279 11.0130753,4.00729302 11.3720744,4.06980465 C12.5072558,4.32416372 13.3953302,5.44625116 13.3953302,6.69771163 C13.3895163,7.09015814 13.7456223,7.45205581 14.1395163,7.45205581 C14.5334102,7.45205581 14.889507,7.09013581 14.8837023,6.69771163 C14.8837023,4.75583256 13.5537674,3.032 11.6976558,2.61622326 C11.6482381,2.60314195 11.5973656,2.59587423 11.546493,2.59296744 C11.5232372,2.59151405 11.4999814,2.59151405 11.4767256,2.59296744 L11.4767442,2.59304186 Z M23.8138605,4.8372093 C21.3574512,4.8372093 19.3487442,6.84446512 19.3487442,9.30232558 C19.3487442,11.760186 21.356,13.7674419 23.8138605,13.7674419 C26.2702698,13.7674419 28.2789767,11.760186 28.2789767,9.30232558 C28.2789767,6.84446512 26.2717209,4.8372093 23.8138605,4.8372093 Z M23.8138605,6.3255814 C25.4664744,6.3255814 26.7906047,7.64971163 26.7906047,9.30232558 C26.7906047,10.9549395 25.4664744,12.2790698 23.8138605,12.2790698 C22.1612465,12.2790698 20.8371163,10.9549395 20.8371163,9.30232558 C20.8371163,7.64971163 22.1612465,6.3255814 23.8138605,6.3255814 Z M10.7906047,14.1395349 C4.83562791,14.1395349 0.0129302326,19.1888372 -9.30232558e-05,25.2792558 C-0.0044535814,25.5452428 0.00426753488,25.8242977 0.0115348837,26.0699535 C0.0231627907,26.4522047 0.373454884,26.7908837 0.75572093,26.7908837 L21.5683721,26.7908837 C21.9462698,26.7908837 22.295107,26.4594902 22.3125581,26.0816 C22.3270928,25.7952633 22.324186,25.5670698 22.324186,25.3025116 C22.324186,24.6688 22.2616856,24.0496 22.1613953,23.4420465 L31.2426977,23.4420465 C31.6205953,23.4420465 31.9694326,23.110653 31.9868837,22.7327628 C32.0014184,22.4493321 31.9987489,22.206586 31.9987489,21.9536744 C31.9987489,17.7430698 28.5043349,14.511814 24.1845581,14.511814 L23.4403721,14.511814 C21.3807628,14.511814 19.5523721,15.280707 18.1611163,16.5234233 C16.3311628,15.0379535 14.036093,14.1397209 11.5333953,14.1397209 L10.7906047,14.1395349 Z M10.7906047,15.627907 L11.5347907,15.627907 C16.6540465,15.627907 20.8371163,19.9854884 20.8371163,25.3023256 L1.48976744,25.3023256 C1.48976744,19.9854884 5.67283721,15.627907 10.792093,15.627907 L10.7906047,15.627907 Z M23.4417674,16 L24.1859535,16 C27.7804465,16 30.5115349,18.553786 30.5115349,21.9534884 L21.8138605,21.9534884 C21.2993302,20.2834233 20.4141581,18.7805395 19.2557209,17.5464186 C20.3734512,16.5871256 21.8051535,15.9999256 23.4417674,15.9999256 L23.4417674,16 Z" id="Shape"></path>
        </g>
    </g>
</svg>