<?xml version="1.0" encoding="UTF-8"?>
<svg xmlns="http://www.w3.org/2000/svg" xmlns:xlink="http://www.w3.org/1999/xlink" width="20pt" height="23pt" viewBox="0 0 20 23" version="1.1">
<defs>
<clipPath id="clip1">
  <path d="M 9.996094 2.710938 C 9.621094 2.710938 9.246094 2.734375 8.878906 2.773438 L 8.921875 0.652344 C 8.925781 0.46875 8.832031 0.292969 8.671875 0.199219 C 8.515625 0.101563 8.316406 0.0976563 8.152344 0.1875 L 1.308594 3.945313 C 1.144531 4.035156 1.042969 4.203125 1.039063 4.390625 C 1.035156 4.574219 1.132813 4.75 1.289063 4.847656 L 7.964844 8.894531 C 8.046875 8.941406 8.144531 8.96875 8.234375 8.96875 C 8.320313 8.96875 8.40625 8.945313 8.484375 8.902344 C 8.648438 8.816406 8.75 8.644531 8.753906 8.460938 L 8.796875 6.460938 C 9.1875 6.386719 9.589844 6.347656 9.996094 6.347656 C 13.507813 6.347656 16.363281 9.203125 16.363281 12.714844 C 16.363281 16.226563 13.507813 19.082031 9.996094 19.082031 C 6.699219 19.082031 3.972656 16.613281 3.660156 13.332031 C 3.5625 12.332031 2.679688 11.601563 1.675781 11.695313 C 0.675781 11.792969 -0.0546875 12.679688 0.0390625 13.679688 C 0.535156 18.832031 4.8125 22.71875 9.996094 22.71875 C 15.511719 22.71875 20 18.230469 20 12.714844 C 20 7.199219 15.511719 2.710938 9.996094 2.710938 Z M 9.996094 2.710938 "/>
</clipPath>
</defs>
<g id="surface1">
<g clip-path="url(#clip1)" clip-rule="nonzero">
<rect x="0" y="0" width="20" height="23" style="fill:rgb(100%,100%,100%);fill-opacity:1;stroke:none;"/>
</g>
</g>
</svg>
